#!OML:ASF E:\Style4\Style4.ASF
:FULLY-SPECIFIED
:DEGREES
1329
root 0.860283 17.7039 0.312727 -3.20693 -25.3659 4.60034
lowerback 5.13412 1.0899 -3.0239
upperback 0.950249 1.27081 -0.527773
thorax -1.95385 0.64854 1.06736
lowerneck 3.34146 -1.0289 -2.955
upperneck 5.71704 -1.54638 2.25049
head 1.25257 -0.814246 1.19179
rclavicle 1.64867e-014 -2.38542e-015
rhumerus -38.9744 13.4306 -94.7508
rradius 49.7132
rwrist -10.2554
rhand 6.16618 -5.68378
rfingers 7.12502
rthumb 31.4817 -32.9923
lclavicle 1.64867e-014 -2.38542e-015
lhumerus -44.3756 -12.7066 93.6554
lradius 52.2992
lwrist 9.86022
lhand 10.6025 43.9423
lfingers 7.12502
lthumb 35.6976 70.3326
rfemur -13.257 15.2872 11.5432
rtibia 33.0833
rfoot -21.1553 0.666274
rtoes -14.737
lfemur -0.203542 6.796 -27.9756
ltibia 23.3895
lfoot -25.928 19.4391
ltoes -7.337
1330
root 0.859027 17.7027 0.309577 -3.21166 -25.3936 4.56727
lowerback 5.15773 1.04384 -3.0805
upperback 0.971668 1.20662 -0.492951
thorax -1.94425 0.616575 1.13913
lowerneck 3.41614 -0.991201 -2.93515
upperneck 5.69022 -1.49411 2.16361
head 1.22872 -0.789132 1.16106
rclavicle 3.14577e-014 -2.78299e-015
rhumerus -38.8875 13.6057 -94.7893
rradius 49.6275
rwrist -10.2864
rhand 6.21357 -5.71408
rfingers 7.12502
rthumb 31.5268 -33.0138
lclavicle 3.14577e-014 -2.78299e-015
lhumerus -44.4092 -12.4865 93.5972
lradius 52.3295
lwrist 9.78135
lhand 10.5714 43.8897
lfingers 7.12502
lthumb 35.6681 70.287
rfemur -13.257 15.3189 11.6003
rtibia 33.0975
rfoot -21.1494 0.554246
rtoes -15.1649
lfemur -0.212202 6.78852 -27.9341
ltibia 23.4467
lfoot -26.0282 19.393
ltoes -7.08085
1331
root 0.857062 17.7021 0.306268 -3.21788 -25.4206 4.57236
lowerback 5.15473 0.981945 -3.18391
upperback 1.01038 1.11975 -0.474278
thorax -1.9013 0.572837 1.22275
lowerneck 3.37142 -0.938815 -2.9148
upperneck 5.74756 -1.42045 2.0874
head 1.25121 -0.752855 1.13347
rclavicle 6.33626e-015 -9.34288e-015
rhumerus -38.7521 13.8318 -94.8689
rradius 49.5141
rwrist -10.3351
rhand 6.21087 -5.77147
rfingers 7.12502
rthumb 31.5242 -33.0717
lclavicle 6.33626e-015 -9.34288e-015
lhumerus -44.41 -12.1954 93.4771
lradius 52.4117
lwrist 9.67657
lhand 10.5819 43.8776
lfingers 7.12502
lthumb 35.678 70.2725
rfemur -13.2811 15.3241 11.6097
rtibia 33.1293
rfoot -21.1306 0.520701
rtoes -15.2689
lfemur -0.230225 6.79738 -27.9278
ltibia 23.4732
lfoot -26.0561 19.4757
ltoes -7.53597
1332
root 0.853873 17.7017 0.303947 -3.24097 -25.4837 4.61339
lowerback 5.13848 0.968444 -3.29638
upperback 1.04952 1.09677 -0.484792
thorax -1.85276 0.560752 1.27718
lowerneck 3.31237 -0.891859 -2.81669
upperneck 5.82779 -1.35068 1.97459
head 1.28229 -0.7174 1.08103
rclavicle -4.81556e-014 5.56597e-015
rhumerus -38.5993 13.8686 -94.8998
rradius 49.3504
rwrist -10.2595
rhand 6.19708 -5.59467
rfingers 7.12502
rthumb 31.5111 -32.8975
lclavicle -4.81556e-014 5.56597e-015
lhumerus -44.4341 -12.057 93.4012
lradius 52.49
lwrist 9.62409
lhand 10.5409 43.8207
lfingers 7.12502
lthumb 35.6392 70.225
rfemur -13.3243 15.374 11.5788
rtibia 33.1762
rfoot -21.1485 0.609446
rtoes -14.9423
lfemur -0.223674 6.81845 -27.9621
ltibia 23.4612
lfoot -25.9615 19.6709
ltoes -8.24966
1333
root 0.851637 17.7006 0.302671 -3.26446 -25.5154 4.68317
lowerback 5.10577 0.941186 -3.40114
upperback 1.07678 1.05599 -0.517463
thorax -1.80573 0.539798 1.30582
lowerneck 3.26285 -0.82703 -2.70731
upperneck 5.93581 -1.25653 1.83872
head 1.31974 -0.670078 1.01968
rclavicle -5.85172e-015 -4.17448e-015
rhumerus -38.4729 13.8503 -94.9361
rradius 49.1926
rwrist -10.1172
rhand 6.20055 -5.36651
rfingers 7.12502
rthumb 31.5144 -32.6686
lclavicle -5.85172e-015 -4.17448e-015
lhumerus -44.5144 -11.899 93.3122
lradius 52.6335
lwrist 9.55082
lhand 10.5425 43.9451
lfingers 7.12502
lthumb 35.6407 70.3491
rfemur -13.3596 15.3706 11.5086
rtibia 33.2178
rfoot -21.1651 0.735984
rtoes -14.3947
lfemur -0.220862 6.78932 -28.0397
ltibia 23.4425
lfoot -25.8879 19.7139
ltoes -8.05689
1334
root 0.849285 17.7004 0.301497 -3.31758 -25.5177 4.74831
lowerback 5.08775 0.880891 -3.52575
upperback 1.12583 0.970513 -0.530637
thorax -1.74282 0.496078 1.36857
lowerneck 3.22133 -0.752471 -2.67504
upperneck 6.01213 -1.15016 1.69185
head 1.34647 -0.618371 0.96821
rclavicle 1.15544e-014 1.35174e-014
rhumerus -38.3229 13.9231 -94.9679
rradius 49.0467
rwrist -9.98243
rhand 6.2189 -5.29127
rfingers 7.12502
rthumb 31.5319 -32.59
lclavicle 1.15544e-014 1.35174e-014
lhumerus -44.5638 -11.5746 93.1538
lradius 52.8482
lwrist 9.66349
lhand 10.6504 44.2941
lfingers 7.12502
lthumb 35.743 70.6734
rfemur -13.3434 15.3635 11.4612
rtibia 33.2461
rfoot -21.1715 0.699713
rtoes -14.5622
lfemur -0.196249 6.75631 -28.0954
ltibia 23.4491
lfoot -25.9795 19.6509
ltoes -7.53153
1335
root 0.84681 17.7002 0.299042 -3.33644 -25.5242 4.71434
lowerback 5.09137 0.824205 -3.54244
upperback 1.17691 0.895051 -0.529535
thorax -1.68875 0.456974 1.38448
lowerneck 3.246 -0.691995 -2.67366
upperneck 5.98256 -1.06366 1.54449
head 1.32947 -0.576999 0.92176
rclavicle -8.27441e-015 1.19271e-014
rhumerus -38.1578 14.0839 -95.018
rradius 48.8953
rwrist -9.98413
rhand 6.24941 -5.38738
rfingers 7.12502
rthumb 31.5609 -32.6804
lclavicle -8.27441e-015 1.19271e-014
lhumerus -44.5974 -11.2523 92.9667
lradius 53.0609
lwrist 9.74782
lhand 10.8173 44.5892
lfingers 7.12502
lthumb 35.9011 70.93
rfemur -13.3255 15.3733 11.5209
rtibia 33.2614
rfoot -21.1528 0.649596
rtoes -14.7189
lfemur -0.187797 6.77253 -28.0437
ltibia 23.4852
lfoot -25.9255 19.7342
ltoes -7.96756
1336
root 0.843185 17.7004 0.295773 -3.28756 -25.5265 4.5821
lowerback 5.06673 0.762014 -3.48382
upperback 1.22296 0.817903 -0.505329
thorax -1.62326 0.416721 1.38229
lowerneck 3.30291 -0.61801 -2.67608
upperneck 5.97037 -0.960664 1.40148
head 1.3124 -0.527653 0.877483
rclavicle -9.62863e-015 -2.98177e-015
rhumerus -37.9997 14.2544 -95.0712
rradius 48.7547
rwrist -10.0035
rhand 6.27679 -5.48047
rfingers 7.12502
rthumb 31.587 -32.7684
lclavicle -9.62863e-015 -2.98177e-015
lhumerus -44.7047 -10.986 92.8379
lradius 53.2857
lwrist 9.61159
lhand 10.8178 44.5286
lfingers 7.12502
lthumb 35.9015 70.8692
rfemur -13.328 15.3628 11.6809
rtibia 33.2739
rfoot -21.157 0.603228
rtoes -14.947
lfemur -0.219047 6.7749 -27.8898
ltibia 23.5474
lfoot -25.8739 19.719
ltoes -7.97128
